<svg width="64" height="64" viewBox="0 0 64 64" fill="none" xmlns="http://www.w3.org/2000/svg">
<path d="M41.3333 19.9999L50.6667 10.6666M56 5.33325L50.6667 10.6666L56 5.33325ZM30.3733 30.9599C31.7502 32.3185 32.8448 33.936 33.594 35.7194C34.3432 37.5027 34.7323 39.4166 34.7387 41.3509C34.7452 43.2853 34.369 45.2017 33.6318 46.9901C32.8945 48.7784 31.8108 50.4032 30.4431 51.771C29.0753 53.1387 27.4505 54.2224 25.6621 54.9597C23.8738 55.6969 21.9573 56.0731 20.023 56.0667C18.0887 56.0602 16.1748 55.6711 14.3914 54.9219C12.6081 54.1727 10.9906 53.0782 9.632 51.7013C6.96035 48.9351 5.48203 45.2303 5.51545 41.3847C5.54886 37.5392 7.09134 33.8606 9.81066 31.1412C12.53 28.4219 16.2086 26.8795 20.0541 26.846C23.8997 26.8126 27.6045 28.2909 30.3707 30.9626L30.3733 30.9599ZM30.3733 30.9599L41.3333 19.9999L30.3733 30.9599ZM41.3333 19.9999L49.3333 27.9999L58.6667 18.6666L50.6667 10.6666L41.3333 19.9999Z" stroke="#5C6877" stroke-width="2" stroke-linecap="round" stroke-linejoin="round"/>
</svg>
