<svg width="60" height="24" viewBox="0 0 60 24" fill="none" xmlns="http://www.w3.org/2000/svg">
<g clip-path="url(#clip0)">
<path d="M28.3777 11.7267V18.7596H26.161V1.38744H32.0371C33.4546 1.35706 34.8244 1.89883 35.8423 2.89124C36.8727 3.82541 37.4533 5.16212 37.4307 6.55705C37.4608 7.96212 36.8803 9.30895 35.8423 10.2457C34.8143 11.233 33.5451 11.7267 32.0371 11.7241L28.3777 11.7267ZM28.3777 3.52668V9.59249H32.0924C32.9168 9.61781 33.711 9.29123 34.284 8.69376C35.4477 7.55452 35.4753 5.67858 34.3418 4.50642C34.3217 4.48617 34.3041 4.46592 34.284 4.4482C33.7185 3.83807 32.9193 3.5039 32.0924 3.52668H28.3777ZM42.5377 6.48617C44.1764 6.48617 45.4682 6.92667 46.4157 7.80769C47.3633 8.6887 47.8358 9.89882 47.8358 11.433V18.7596H45.717V17.1089H45.6215C44.7042 18.4684 43.4827 19.1469 41.9596 19.1469C40.6603 19.1469 39.572 18.7596 38.6974 17.9824C37.8479 17.2608 37.3653 16.1925 37.3854 15.071C37.3854 13.8406 37.8479 12.8634 38.7703 12.1368C39.6926 11.4102 40.9242 11.0457 42.4673 11.0457C43.7818 11.0457 44.8675 11.2887 45.717 11.7722V11.2608C45.7221 10.4963 45.3853 9.77224 44.8022 9.28616C44.2166 8.75452 43.4525 8.46338 42.6634 8.47351C41.4268 8.47351 40.4466 9.00009 39.7253 10.0507L37.775 8.81275C38.8457 7.26085 40.4341 6.48617 42.5377 6.48617ZM39.67 15.1216C39.6675 15.6988 39.9415 16.2406 40.4039 16.5773C40.894 16.9646 41.5022 17.1722 42.1255 17.1596C43.0605 17.157 43.9577 16.7824 44.6187 16.1165C45.3526 15.4203 45.7195 14.6051 45.7195 13.6659C45.0284 13.1115 44.0658 12.833 42.8292 12.833C41.9295 12.833 41.178 13.0507 40.5773 13.4887C39.9716 13.9343 39.67 14.4735 39.67 15.1216ZM60.0001 6.87351L52.6035 24.0001H50.3164L53.0609 18.0077L48.1952 6.87351H50.6029L54.119 15.4127H54.1668L57.5874 6.87351H60.0001Z" fill="white"/>
<path d="M19.4228 10.2076C19.4228 9.52661 19.3675 8.84813 19.2519 8.17725H9.90747V12.0203H15.2583C15.0371 13.2608 14.3233 14.357 13.2803 15.0532V17.5494H16.4747C18.3446 15.8152 19.4228 13.2456 19.4228 10.2076Z" fill="#4285F4"/>
<path d="M9.90738 19.962C12.5815 19.962 14.8334 19.0785 16.4746 17.5519L13.2802 15.0557C12.3905 15.6633 11.247 16.0101 9.90738 16.0101C7.32371 16.0101 5.1296 14.2557 4.34545 11.8911H1.05554V14.4633C2.73694 17.8354 6.16257 19.962 9.90738 19.962Z" fill="#34A853"/>
<path d="M4.34549 11.8909C3.9308 10.653 3.9308 9.30866 4.34549 8.07069V5.49854H1.05559C-0.351862 8.31879 -0.351862 11.6428 1.05559 14.4631L4.34549 11.8909Z" fill="#FBBC04"/>
<path d="M9.90738 3.95202C11.3199 3.92923 12.6846 4.46594 13.7075 5.44822L16.5375 2.60012C14.743 0.903916 12.3679 -0.0277296 9.90738 0.000118508C6.16257 0.000118508 2.73694 2.12923 1.05554 5.49885L4.34545 8.071C5.1296 5.70645 7.32371 3.95202 9.90738 3.95202Z" fill="#EA4335"/>
</g>
<defs>
<clipPath id="clip0">
<rect width="60" height="24" fill="white"/>
</clipPath>
</defs>
</svg>
