<svg width="24" height="24" viewBox="0 0 24 24" fill="none" xmlns="http://www.w3.org/2000/svg">
<path d="M20.3469 10.7205C20.3436 10.7188 20.3403 10.7168 20.3371 10.7147L5.55479 2.11314C4.98077 1.76734 4.29 1.75673 3.70537 2.08579C3.11951 2.41566 2.76923 3.01417 2.76923 3.68698V20.8878C2.76923 21.5606 3.11951 22.1591 3.70537 22.489C4.27652 22.8103 4.9673 22.8152 5.55438 22.4617C5.55438 22.4617 20.3436 13.8637 20.3469 13.8617C20.9001 13.5257 21.2308 12.9386 21.2308 12.2911C21.2308 11.6436 20.9001 11.0565 20.3469 10.7205ZM15.3653 9.23892L13.1937 11.4203L5.05263 3.23831L15.3653 9.23892ZM3.99401 20.6608V3.91071L12.3295 12.2882L3.99401 20.6608ZM5.04569 21.3406L13.1933 13.1566L15.3661 15.3404L5.04569 21.3406ZM19.7157 12.812L16.4606 14.7043L14.0576 12.2886L16.4598 9.87576L19.7153 11.7701C19.9774 11.9318 20.006 12.1882 20.006 12.291C20.006 12.3939 19.9774 12.6503 19.7157 12.812Z" fill="white"/>
</svg>
