<svg width="64" height="64" viewBox="0 0 64 64" fill="none" xmlns="http://www.w3.org/2000/svg">
<g clip-path="url(#clip0)">
<path d="M48.8 14.0002C51.7455 14.0002 54.1333 11.6123 54.1333 8.66683C54.1333 5.72131 51.7455 3.3335 48.8 3.3335C45.8545 3.3335 43.4667 5.72131 43.4667 8.66683C43.4667 11.6123 45.8545 14.0002 48.8 14.0002Z" stroke="#5C6877" stroke-width="1.8"/>
<path d="M61.7334 16.0003C60.4001 15.3337 58.8001 15.8003 58.1334 17.1337L55.8001 21.5337L45.5334 15.067C45.1334 14.8003 44.6667 14.667 44.1334 14.667H32.8001C31.8001 14.667 30.9334 15.2003 30.4667 16.067L26.1334 24.067C25.4001 25.3337 25.9334 27.0003 27.2 27.667C27.6 27.867 28.0667 28.0003 28.4667 28.0003C29.4001 28.0003 30.3334 27.467 30.8001 26.6003L34.4 20.0003H38.3334L26.5334 42.0003H15.4667C14 42.0003 12.8 43.2003 12.8 44.667C12.8 46.1337 14 47.3337 15.4667 47.3337H28.1334C29.1334 47.3337 30.0001 46.8003 30.4667 45.9337L35.1334 37.3337L42.8001 44.467L42.2001 57.867C42.0667 59.3337 43.2001 60.6003 44.6667 60.667C44.7334 60.667 44.7334 60.667 44.8001 60.667C46.2001 60.667 47.4001 59.5337 47.4667 58.1337L48.1334 43.467C48.2001 42.667 47.8667 41.9337 47.2667 41.4003L40.8001 35.4003L47.6001 22.7337L55.3334 27.6003C55.9334 28.0003 56.7334 28.1337 57.4667 27.9337C58.2001 27.7337 58.8001 27.267 59.1334 26.6003L62.8001 19.6003C63.5334 18.3337 63.0667 16.7337 61.7334 16.0003Z" stroke="#5C6877" stroke-width="1.8"/>
<path d="M8.36401 12.9497C10.0518 14.6375 11.0001 16.9267 11.0001 19.3137C11.0001 21.7006 10.0518 23.9898 8.36401 25.6776" stroke="#5C6877" stroke-width="2" stroke-linecap="round" stroke-linejoin="round"/>
<path d="M13.3137 8C16.3143 11.0006 18 15.0702 18 19.3137C18 23.5572 16.3143 27.6268 13.3137 30.6274" stroke="#5C6877" stroke-width="2" stroke-linecap="round" stroke-linejoin="round"/>
<path d="M2.70708 20.0207C3.0976 20.4113 3.73077 20.4113 4.12129 20.0207C4.51182 19.6302 4.51182 18.997 4.12129 18.6065C3.73077 18.216 3.0976 18.216 2.70708 18.6065C2.31655 18.997 2.31655 19.6302 2.70708 20.0207Z" stroke="#5C6877" stroke-width="2" stroke-linecap="round" stroke-linejoin="round"/>
</g>
<defs>
<clipPath id="clip0">
<rect width="64" height="64" fill="white"/>
</clipPath>
</defs>
</svg>
