<svg width="64" height="64" viewBox="0 0 64 64" fill="none" xmlns="http://www.w3.org/2000/svg">
<path fill-rule="evenodd" clip-rule="evenodd" d="M25.1771 7.53516C23.1516 11.236 22 15.4835 22 19.9999C22 34.3593 33.6406 45.9999 48 45.9999C51.0973 45.9999 54.0681 45.4583 56.8229 44.4647C52.4085 52.5303 43.843 57.9999 34 57.9999C19.6406 57.9999 8 46.3593 8 31.9999C8 20.7378 15.1605 11.1481 25.1771 7.53516Z" stroke="#5C6877" stroke-width="2" stroke-linecap="round" stroke-linejoin="round"/>
<path fill-rule="evenodd" clip-rule="evenodd" d="M32.4999 18.7831L32.2061 18.9045L32.2307 18.5875L32.0244 18.3455L32.3335 18.271L32.4999 18L32.6663 18.271L32.9755 18.3455L32.7692 18.5875L32.7938 18.9045L32.4999 18.7831Z" fill="#5C6877" stroke="#5C6877"/>
<path fill-rule="evenodd" clip-rule="evenodd" d="M48 19.1324L46.8244 19.618L46.9231 18.3499L46.0979 17.382L47.3344 17.0839L48 16L48.6656 17.0839L49.9021 17.382L49.077 18.3499L49.1756 19.618L48 19.1324Z" fill="#5C6877" stroke="#5C6877"/>
<path fill-rule="evenodd" clip-rule="evenodd" d="M38.9999 25.5662L38.4121 25.809L38.4614 25.175L38.0488 24.691L38.6671 24.5419L38.9999 24L39.3327 24.5419L39.9509 24.691L39.5384 25.175L39.5877 25.809L38.9999 25.5662Z" fill="#5C6877" stroke="#5C6877"/>
<path fill-rule="evenodd" clip-rule="evenodd" d="M40 11.1324L38.8244 11.618L38.9231 10.3499L38.0979 9.38197L39.3344 9.0839L40 8L40.6656 9.0839L41.9021 9.38197L41.077 10.3499L41.1756 11.618L40 11.1324Z" fill="#5C6877" stroke="#5C6877"/>
</svg>
