<svg width="48" height="48" viewBox="0 0 48 48" fill="none" xmlns="http://www.w3.org/2000/svg">
<path d="M17.6 30.8954L20.0381 17.1812H23.8476L21.4857 30.8954H17.6Z" fill="white"/>
<path d="M35.2762 17.3332C34.5143 17.0284 33.2952 16.7236 31.7714 16.7236C27.9619 16.7236 25.219 18.6284 25.219 21.3713C25.219 23.4284 27.1238 24.4951 28.6476 25.1808C30.1714 25.8665 30.6285 26.3236 30.6285 26.9332C30.6285 27.8474 29.4095 28.3046 28.3428 28.3046C26.819 28.3046 25.9809 28.076 24.6857 27.5427L24.1524 27.3141L23.619 30.4379C24.5333 30.8189 26.2095 31.1998 27.9619 31.1998C32 31.1998 34.6666 29.2951 34.6666 26.3998C34.6666 24.7998 33.6762 23.5808 31.3904 22.5903C30.019 21.9046 29.1809 21.5236 29.1809 20.8379C29.1809 20.2284 29.8666 19.6189 31.3904 19.6189C32.6857 19.6189 33.6 19.8474 34.2857 20.1522L34.6666 20.3046L35.2762 17.3332Z" fill="white"/>
<path d="M41.8285 17.1812C40.9142 17.1812 40.2285 17.2573 39.8476 18.1716L34.1333 30.8954H38.2476L39.0095 28.6097H43.8857L44.3428 30.8954H47.9999L44.7999 17.1812H41.8285ZM40.0761 26.324C40.3047 25.6383 41.5999 22.2859 41.5999 22.2859C41.5999 22.2859 41.9047 21.4478 42.1333 20.9145L42.3618 22.2097C42.3618 22.2097 43.1238 25.6383 43.2761 26.4002H40.0761V26.324Z" fill="white"/>
<path d="M10.5905 26.7806L10.2096 24.7997C9.52384 22.514 7.31432 19.9997 4.87622 18.7806L8.30479 30.9711H12.4191L18.5905 17.2568H14.4762L10.5905 26.7806Z" fill="white"/>
<path d="M0 17.1812L0.685714 17.3335C5.5619 18.4764 8.91428 21.3716 10.2095 24.8002L8.83809 18.324C8.60952 17.4097 7.92381 17.1812 7.08571 17.1812H0Z" fill="#FFBC00"/>
<path d="M0 17.1812C4.87619 18.324 8.91428 21.2954 10.2095 24.724L8.91428 19.3145C8.68571 18.4002 7.92381 17.8669 7.08571 17.8669L0 17.1812Z" fill="#F7981D"/>
<path d="M0 17.1812C4.87619 18.324 8.91428 21.2954 10.2095 24.724L9.29524 21.7526C9.06667 20.8383 8.7619 19.924 7.69524 19.5431L0 17.1812Z" fill="#ED7C00"/>
</svg>
