<svg width="24" height="24" viewBox="0 0 24 24" fill="none" xmlns="http://www.w3.org/2000/svg">
<path d="M8.7998 15.4477L10.0189 8.59052H11.9236L10.7427 15.4477H8.7998Z" fill="#004FAF"/>
<path d="M17.6381 8.66661C17.2572 8.51423 16.6477 8.36185 15.8858 8.36185C13.981 8.36185 12.6096 9.31423 12.6096 10.6857C12.6096 11.7142 13.562 12.2476 14.3239 12.5904C15.0858 12.9333 15.3143 13.1618 15.3143 13.4666C15.3143 13.9238 14.7048 14.1523 14.1715 14.1523C13.4096 14.1523 12.9905 14.038 12.3429 13.7714L12.0762 13.6571L11.8096 15.219C12.2667 15.4095 13.1048 15.5999 13.981 15.5999C16 15.5999 17.3334 14.6476 17.3334 13.1999C17.3334 12.3999 16.8381 11.7904 15.6953 11.2952C15.0096 10.9523 14.5905 10.7618 14.5905 10.419C14.5905 10.1142 14.9334 9.80947 15.6953 9.80947C16.3429 9.80947 16.8 9.92375 17.1429 10.0761L17.3334 10.1523L17.6381 8.66661Z" fill="#004FAF"/>
<path d="M20.9145 8.59052C20.4574 8.59052 20.1145 8.62861 19.924 9.08575L17.0669 15.4477H19.124L19.505 14.3048H21.9431L22.1716 15.4477H24.0002L22.4002 8.59052H20.9145ZM20.0383 13.1619C20.1526 12.8191 20.8002 11.1429 20.8002 11.1429C20.8002 11.1429 20.9526 10.7238 21.0669 10.4572L21.1812 11.1048C21.1812 11.1048 21.5621 12.8191 21.6383 13.2H20.0383V13.1619Z" fill="#004FAF"/>
<path d="M5.29513 13.3904L5.10466 12.3999C4.7618 11.257 3.65704 9.99991 2.43799 9.39038L4.15227 15.4856H6.20942L9.29513 8.62848H7.23799L5.29513 13.3904Z" fill="#004FAF"/>
<path d="M0 8.59052L0.342857 8.66671C2.78095 9.23813 4.45714 10.6858 5.10476 12.4L4.41905 9.16194C4.30476 8.7048 3.96191 8.59052 3.54286 8.59052H0Z" fill="#FFBC00"/>
<path d="M0 8.59052C2.4381 9.16194 4.45714 10.6477 5.10476 12.3619L4.45714 9.65718C4.34286 9.20004 3.96191 8.93337 3.54286 8.93337L0 8.59052Z" fill="#F7981D"/>
<path d="M0 8.59052C2.4381 9.16194 4.45714 10.6477 5.10476 12.3619L4.64762 10.8762C4.53333 10.4191 4.38095 9.96194 3.84762 9.77147L0 8.59052Z" fill="#ED7C00"/>
</svg>
