<svg width="512" height="512" viewBox="0 0 512 512" fill="none" xmlns="http://www.w3.org/2000/svg">
<path fill-rule="evenodd" clip-rule="evenodd" d="M362.751 249.756L347.716 258.545C347.716 258.545 347.716 299.197 330.367 307.986C309.549 318.973 297.983 291.506 297.983 291.506L282.947 302.493C282.947 302.493 297.983 331.059 328.054 323.368C373.161 312.381 362.751 249.756 362.751 249.756Z" fill="#F36E32"/>
<path fill-rule="evenodd" clip-rule="evenodd" d="M512 236.409L474.848 224.781C474.848 224.781 480.653 255.014 469.043 277.108C453.95 303.853 413.315 323.621 413.315 323.621C413.315 323.621 423.764 298.039 423.764 273.62C422.603 249.2 416.798 224.781 416.798 224.781L402.866 229.432C402.866 229.432 417.959 350.367 358.748 379.437C280.961 417.811 273.995 306.179 273.995 306.179L258.902 321.296C258.902 321.296 260.063 336.412 265.868 353.855C272.834 372.46 294.893 393.391 294.893 393.391C294.893 393.391 220.59 384.089 184.599 364.321C162.54 352.692 157.896 325.947 157.896 325.947L135.837 321.296L142.803 355.018C142.803 355.018 117.261 352.692 102.168 342.227C87.0747 330.598 83.5918 310.83 83.5918 310.83C83.5918 310.83 0 272.457 0 281.76C12.771 410.834 121.905 512 255.42 512C397.061 512 512 396.88 512 255.014C512 251.526 512 236.409 512 236.409Z" fill="#FB721F"/>
<path fill-rule="evenodd" clip-rule="evenodd" d="M252.679 0C113.191 0 0 113.801 0 254.04C0 264.386 57.1672 274.731 57.1672 274.731C57.1672 274.731 40.017 122.997 160.068 127.595C198.942 128.744 501.928 214.957 498.498 196.565C473.344 83.9138 372.73 0 252.679 0Z" fill="#006EF5"/>
</svg>
