<svg width="56" height="24" viewBox="0 0 56 24" fill="none" xmlns="http://www.w3.org/2000/svg">
<g clip-path="url(#clip0)">
<path d="M10.6134 3.09375C11.2651 2.25 11.7306 1.125 11.591 0C10.6134 0.046875 9.44968 0.65625 8.75143 1.45312C8.14627 2.15625 7.58767 3.32812 7.72732 4.40625C8.84453 4.54688 9.91518 3.9375 10.6134 3.09375ZM11.591 4.6875C10.0083 4.59375 8.65833 5.57812 7.91352 5.57812C7.16872 5.57812 6.00497 4.73438 4.74812 4.73438C3.11887 4.78125 1.62927 5.67188 0.791367 7.17188C-0.884435 10.125 0.325867 14.4844 2.00167 16.875C2.79302 18.0469 3.77057 19.3594 5.02742 19.3125C6.23772 19.2656 6.70322 18.5156 8.14628 18.5156C9.58933 18.5156 10.0083 19.3125 11.3117 19.2656C12.6151 19.2188 13.453 18.0938 14.2443 16.875C15.1753 15.5156 15.5477 14.2031 15.5477 14.1563C15.5012 14.1094 12.9875 13.1719 12.9875 10.2656C12.9409 7.82813 14.9426 6.65625 15.0357 6.60938C13.965 4.92188 12.1961 4.73438 11.591 4.6875Z" fill="white"/>
<path d="M25.2769 1.35938C28.7216 1.35938 31.0956 3.75 31.0956 7.17188C31.0956 10.6406 28.675 13.0312 25.1838 13.0312H21.4132V19.0781H18.6667V1.35938H25.2769ZM21.4132 10.7344H24.5321C26.9061 10.7344 28.2561 9.42188 28.2561 7.21875C28.2561 4.96875 26.9061 3.70312 24.5321 3.70312H21.3667V10.7344H21.4132ZM31.7939 15.4688C31.7939 13.2188 33.5162 11.8125 36.5885 11.625L40.1263 11.4375V10.4531C40.1263 9 39.1488 8.15625 37.5661 8.15625C36.0299 8.15625 35.0989 8.90625 34.8662 10.0312H32.3525C32.4921 7.6875 34.4938 5.95312 37.6592 5.95312C40.778 5.95312 42.7797 7.59375 42.7797 10.2188V19.125H40.266V17.0156H40.2194C39.4746 18.4687 37.8454 19.3594 36.1696 19.3594C33.5628 19.3594 31.7939 17.7656 31.7939 15.4688ZM40.1263 14.2969V13.2656L36.9609 13.4531C35.3782 13.5469 34.4938 14.25 34.4938 15.375C34.4938 16.5 35.4248 17.25 36.8213 17.25C38.6833 17.25 40.1263 15.9844 40.1263 14.2969ZM45.1072 23.9062V21.75C45.2934 21.7969 45.7589 21.7969 45.9451 21.7969C47.1554 21.7969 47.8071 21.2812 48.226 19.9687C48.226 19.9219 48.4588 19.1719 48.4588 19.1719L43.8038 6.23438H46.6433L49.9018 16.7812H49.9484L53.2069 6.23438H55.9999L51.2052 19.875C50.088 23.0156 48.8312 24 46.1778 24C45.9916 23.9531 45.3399 23.9531 45.1072 23.9062Z" fill="white"/>
</g>
<defs>
<clipPath id="clip0">
<rect width="56" height="24" fill="white"/>
</clipPath>
</defs>
</svg>
