<svg width="64" height="64" viewBox="0 0 64 64" fill="none" xmlns="http://www.w3.org/2000/svg">
<path d="M4.83458 41.4026C3.07569 37.8204 2.35684 33.8167 2.75973 29.8464C3.16262 25.876 4.67108 22.0983 7.11372 18.9424C9.55635 15.7866 12.8352 13.3791 16.5777 11.9937C20.3202 10.6082 24.3763 10.3002 28.2851 11.1048C32.1939 11.9094 35.7986 13.7942 38.6897 16.5451C41.5808 19.296 43.6423 22.8027 44.64 26.6667H48C51.5362 26.6667 54.9276 28.0715 57.4281 30.572C59.9286 33.0725 61.3333 36.4639 61.3333 40.0001C61.3333 43.5363 59.9286 46.9277 57.4281 49.4282C54.9276 51.9287 51.5362 53.3334 48 53.3334H36" stroke="#5C6877" stroke-width="1.8" stroke-linecap="round" stroke-linejoin="round"/>
<g clip-path="url(#clip0)">
<path d="M9.83333 44.3333V49.3333H14.8333" stroke="#5C6877" stroke-width="1.8" stroke-linecap="round" stroke-linejoin="round"/>
<path d="M28.1667 57.6667V52.6667H23.1667" stroke="#5C6877" stroke-width="1.8" stroke-linecap="round" stroke-linejoin="round"/>
<path d="M26.075 48.5C25.6524 47.3056 24.934 46.2378 23.9871 45.3962C23.0402 44.5545 21.8954 43.9665 20.6598 43.6869C19.4241 43.4073 18.1377 43.4453 16.9207 43.7973C15.7036 44.1493 14.5956 44.8039 13.7 45.7L9.83333 49.3333M28.1667 52.6666L24.3 56.3C23.4044 57.1961 22.2963 57.8506 21.0793 58.2027C19.8623 58.5547 18.5759 58.5927 17.3402 58.3131C16.1045 58.0335 14.9598 57.4455 14.0129 56.6038C13.0659 55.7621 12.3476 54.6943 11.925 53.5" stroke="#5C6877" stroke-width="1.8" stroke-linecap="round" stroke-linejoin="round"/>
</g>
<defs>
<clipPath id="clip0">
<rect width="20" height="20" fill="white" transform="translate(9 41)"/>
</clipPath>
</defs>
</svg>
