<svg width="166" height="40" viewBox="0 0 166 40" fill="none" xmlns="http://www.w3.org/2000/svg">
<path fill-rule="evenodd" clip-rule="evenodd" d="M62.9007 14.2308H60.5836C59.6567 14.2308 59.286 14.3846 59.0079 14.9231L55.9494 20.4615C55.3933 21.3846 55.1152 22.5385 55.1152 22.5385H54.9298C54.9298 22.5385 55.0225 21.3846 54.9298 20.4615L54.281 14.9231C54.281 14.3846 53.9103 14.2308 52.9835 14.2308H50.759C50.2029 14.2308 49.9249 14.4615 50.0176 14.9231L52.1493 25.2308C52.242 25.6154 52.52 25.7692 53.0761 25.7692H55.5786C56.1347 25.7692 56.4128 25.6923 56.6908 25.2308L63.1787 14.9231C63.6422 14.4615 63.5495 14.2308 62.9007 14.2308ZM74.3008 14.9231C74.3935 14.3846 74.2081 14.2308 73.5594 14.2308H65.4031C64.7544 14.2308 64.569 14.3846 64.3836 14.9231L62.2519 25.0769C62.1592 25.6154 62.3446 25.7692 62.9007 25.7692H71.2423C71.891 25.7692 72.1691 25.6154 72.2618 25.0769L72.5398 23.6154C72.6325 23.0769 72.4471 22.9231 71.891 22.9231H66.5154L66.8861 21.3846H71.0569C71.7057 21.3846 71.891 21.2308 72.0764 20.6923L72.3545 19.2308C72.4471 18.6923 72.2618 18.5385 71.7057 18.5385H67.5349L67.8129 17.0769H73.0032C73.652 17.0769 73.8374 16.9231 74.0228 16.3846L74.3008 14.9231ZM82.5497 14.2308H76.9887C76.3399 14.2308 76.1545 14.3846 75.9691 14.9231L73.8374 25.0769C73.7447 25.6154 73.9301 25.7692 74.4862 25.7692H76.7106C77.3594 25.7692 77.5448 25.6154 77.7301 25.0769L78.3789 21.9231H78.935C79.7692 21.9231 79.9546 22.2308 80.1399 22.7692L80.8814 25C81.0668 25.5385 81.5302 25.7692 82.5497 25.7692H84.6815C85.3303 25.7692 85.5156 25.3846 85.3303 25L84.1254 22.2308C84.0327 22 83.8473 21.7692 83.7546 21.5385C85.2376 20.9231 86.2571 19.9231 86.5351 18.3077C87.0913 15.7692 85.4229 14.2308 82.5497 14.2308ZM82.5497 18.1539C82.457 18.8462 81.9009 19.2308 81.0668 19.2308H78.935L79.3985 17.0769H81.5302C82.2717 17.0769 82.6424 17.5385 82.5497 18.1539ZM94.6914 14.2308H89.9645C89.3157 14.2308 89.1303 14.3846 88.9449 14.9231L86.8132 25.0769C86.7205 25.6154 86.9059 25.7692 87.462 25.7692H92.2816C96.1743 25.7692 98.5841 24.3077 99.1402 21.4615L99.6036 19C100.252 16.2308 98.4914 14.2308 94.6914 14.2308ZM95.8036 18.8462L95.3401 21.1538C95.0621 22.3077 94.3206 22.9231 92.6523 22.9231H91.0767L92.3743 17.0769H93.9499C95.5255 17.0769 96.0816 17.6923 95.8036 18.8462ZM105.443 14.2308H103.126C102.57 14.2308 102.291 14.3846 102.199 14.8462L100.067 25.0769C99.9743 25.5385 100.16 25.6923 100.716 25.6923H103.033C103.589 25.6923 103.867 25.5385 103.96 25.0769L106.092 14.8462C106.184 14.3846 105.999 14.2308 105.443 14.2308ZM122.867 14.2308H120.55C119.623 14.2308 119.253 14.3846 118.975 14.9231L115.916 20.4615C115.36 21.3846 115.082 22.5385 115.082 22.5385H114.897C114.897 22.5385 114.989 21.3846 114.897 20.4615L114.248 14.9231C114.248 14.3846 113.877 14.2308 112.95 14.2308H110.818C110.262 14.2308 109.984 14.4615 110.077 14.9231L112.209 25.2308C112.301 25.6154 112.579 25.7692 113.136 25.7692H115.638C116.194 25.7692 116.472 25.6923 116.75 25.2308L123.238 14.9231C123.609 14.4615 123.516 14.2308 122.867 14.2308ZM127.687 14.2308H125.37C124.814 14.2308 124.536 14.3846 124.443 14.8462L122.311 25.0769C122.219 25.5385 122.404 25.6923 122.96 25.6923H125.277C125.833 25.6923 126.111 25.5385 126.204 25.0769L128.336 14.8462C128.428 14.3846 128.243 14.2308 127.687 14.2308ZM136.029 14.2308H131.209C130.56 14.2308 130.375 14.3846 130.189 14.9231L128.058 25.0769C127.965 25.6154 128.15 25.7692 128.706 25.7692H133.526C137.419 25.7692 139.829 24.3077 140.385 21.4615L140.941 19C141.682 16.2308 139.921 14.2308 136.029 14.2308ZM137.233 18.8462L136.77 21.1538C136.492 22.3077 135.75 22.9231 134.082 22.9231H132.507L133.804 17.0769H135.38C136.863 17.0769 137.419 17.6923 137.233 18.8462ZM152.712 14.2308H144.463C143.814 14.2308 143.629 14.3846 143.443 14.9231L141.312 25.0769C141.219 25.6154 141.404 25.7692 141.96 25.7692H150.302C150.951 25.7692 151.229 25.6154 151.321 25.0769L151.599 23.6154C151.692 23.0769 151.507 22.9231 150.951 22.9231H145.575L145.946 21.3846H150.117C150.765 21.3846 150.951 21.2308 151.136 20.6923L151.414 19.2308C151.507 18.6923 151.321 18.5385 150.765 18.5385H146.595L146.873 17.0769H152.063C152.712 17.0769 152.897 16.9231 153.082 16.3846L153.36 14.9231C153.546 14.4615 153.36 14.2308 152.712 14.2308ZM160.775 14C156.882 14 154.473 15.6154 153.917 18.3846L153.268 21.3077C152.712 24.1538 154.473 26 158.365 26C162.258 26 164.668 24.4615 165.224 21.6923L165.873 18.7692C166.522 15.9231 164.668 14 160.775 14ZM162.073 18.3846L161.424 21.6154C161.239 22.6154 160.312 23.1538 158.922 23.1538C157.531 23.1538 156.882 22.6154 157.068 21.6154L157.717 18.3846C157.902 17.3846 158.829 16.8462 160.219 16.8462C161.609 16.8462 162.258 17.3846 162.073 18.3846Z" fill="#202020"/>
<path fill-rule="evenodd" clip-rule="evenodd" d="M28.3399 19.5122L27.1653 20.1989C27.1653 20.1989 27.1653 23.3748 25.8099 24.0615C24.1835 24.9198 23.2799 22.7739 23.2799 22.7739L22.1052 23.6323C22.1052 23.6323 23.2799 25.864 25.6292 25.2632C29.1531 24.4048 28.3399 19.5122 28.3399 19.5122Z" fill="#F36E32"/>
<path fill-rule="evenodd" clip-rule="evenodd" d="M40 18.4695L37.0975 17.561C37.0975 17.561 37.551 19.923 36.644 21.6491C35.4649 23.7386 32.2902 25.283 32.2902 25.283C32.2902 25.283 33.1066 23.2843 33.1066 21.3766C33.0159 19.4688 32.5624 17.561 32.5624 17.561L31.4739 17.9244C31.4739 17.9244 32.6531 27.3724 28.0272 29.6436C21.9501 32.6415 21.4059 23.9203 21.4059 23.9203L20.2268 25.1013C20.2268 25.1013 20.3175 26.2823 20.771 27.645C21.3152 29.0985 23.0385 30.7337 23.0385 30.7337C23.0385 30.7337 17.2336 30.007 14.4218 28.4626C12.6984 27.5541 12.3356 25.4647 12.3356 25.4647L10.6122 25.1013L11.1565 27.7358C11.1565 27.7358 9.16099 27.5541 7.98185 26.7365C6.80271 25.828 6.53061 24.2837 6.53061 24.2837C6.53061 24.2837 0 21.2857 0 22.0125C0.997733 32.0964 9.52381 40.0001 19.9547 40.0001C31.0204 40.0001 40 31.0063 40 19.923C40 19.6505 40 18.4695 40 18.4695Z" fill="#FB721F"/>
<path fill-rule="evenodd" clip-rule="evenodd" d="M19.7405 0C8.84305 0 0 8.89071 0 19.8469C0 20.6552 4.46618 21.4634 4.46618 21.4634C4.46618 21.4634 3.12633 9.60914 12.5053 9.96836C15.5423 10.0582 39.2131 16.7936 38.9451 15.3567C36.98 6.55578 29.1195 0 19.7405 0Z" fill="#006EF5"/>
</svg>
