<svg width="24" height="24" viewBox="0 0 24 24" fill="none" xmlns="http://www.w3.org/2000/svg">
<path d="M8.3999 18C11.7136 18 14.3999 15.3137 14.3999 12C14.3999 8.68629 11.7136 6 8.3999 6C5.08619 6 2.3999 8.68629 2.3999 12C2.3999 15.3137 5.08619 18 8.3999 18Z" fill="#EE0005"/>
<path d="M15.8545 18C19.1682 18 21.8545 15.3137 21.8545 12C21.8545 8.68629 19.1682 6 15.8545 6C12.5408 6 9.85449 8.68629 9.85449 12C9.85449 15.3137 12.5408 18 15.8545 18Z" fill="#FFC700"/>
<path d="M9.85449 11.9999C9.85449 13.9051 10.7426 15.6026 12.1272 16.7017C13.5117 15.6026 14.3999 13.9051 14.3999 11.9999C14.3999 10.0948 13.5118 8.39725 12.1272 7.29819C10.7426 8.39734 9.85449 10.0949 9.85449 11.9999Z" fill="#FF6300"/>
</svg>
