<svg width="48" height="48" viewBox="0 0 48 48" fill="none" xmlns="http://www.w3.org/2000/svg">
<path d="M16.8 36C23.4275 36 28.8 30.6274 28.8 24C28.8 17.3726 23.4275 12 16.8 12C10.1726 12 4.80005 17.3726 4.80005 24C4.80005 30.6274 10.1726 36 16.8 36Z" fill="#EE0005"/>
<path d="M31.7091 36C38.3365 36 43.7091 30.6274 43.7091 24C43.7091 17.3726 38.3365 12 31.7091 12C25.0817 12 19.7091 17.3726 19.7091 24C19.7091 30.6274 25.0817 36 31.7091 36Z" fill="#FFC700"/>
<path d="M19.7092 23.9997C19.7092 27.8099 21.4854 31.205 24.2546 33.4032C27.0237 31.205 28.8 27.8099 28.8 23.9997C28.8 20.1894 27.0238 16.7943 24.2546 14.5962C21.4855 16.7945 19.7092 20.1895 19.7092 23.9997Z" fill="#FF6300"/>
</svg>
