<svg width="38" height="24" viewBox="0 0 38 24" fill="none" xmlns="http://www.w3.org/2000/svg">
<g clip-path="url(#clip0)">
<path d="M11.7197 24C18.1923 24 23.4393 18.6274 23.4393 12C23.4393 5.37258 18.1923 0 11.7197 0C5.24708 0 0 5.37258 0 12C0 18.6274 5.24708 24 11.7197 24Z" fill="#EE0005"/>
<path d="M26.2803 24C32.7529 24 38 18.6274 38 12C38 5.37258 32.7529 0 26.2803 0C19.8077 0 14.5607 5.37258 14.5607 12C14.5607 18.6274 19.8077 24 26.2803 24Z" fill="#FFC700"/>
<path d="M14.5609 12.0002C14.5609 15.8104 16.2956 19.2055 19.0001 21.4037C21.7045 19.2054 23.4393 15.8104 23.4393 12.0002C23.4393 8.18992 21.7046 4.7948 19.0001 2.59668C16.2957 4.79498 14.5609 8.19001 14.5609 12.0002Z" fill="#FF6300"/>
</g>
<defs>
<clipPath id="clip0">
<rect width="38" height="24" fill="white"/>
</clipPath>
</defs>
</svg>
