<svg width="19" height="20" viewBox="0 0 19 20" fill="none" xmlns="http://www.w3.org/2000/svg">
<path d="M17.3332 14.1V16.6C17.3341 16.8321 17.2866 17.0618 17.1936 17.2745C17.1006 17.4871 16.9643 17.678 16.7933 17.8349C16.6222 17.9918 16.4203 18.1112 16.2005 18.1856C15.9806 18.26 15.7477 18.2876 15.5165 18.2667C12.9522 17.988 10.489 17.1118 8.32486 15.7083C6.31139 14.4289 4.60431 12.7218 3.32486 10.7083C1.91651 8.53435 1.04007 6.05917 0.76653 3.48334C0.745705 3.2529 0.773092 3.02064 0.846947 2.80136C0.920801 2.58208 1.03951 2.38058 1.1955 2.20969C1.3515 2.0388 1.54137 1.90227 1.75302 1.80878C1.96468 1.71529 2.19348 1.66689 2.42486 1.66668H4.92486C5.32928 1.6627 5.72136 1.80591 6.028 2.06962C6.33464 2.33333 6.53493 2.69955 6.59153 3.10001C6.69705 3.90006 6.89274 4.68562 7.17486 5.44168C7.28698 5.73995 7.31125 6.0641 7.24478 6.37574C7.17832 6.68738 7.02392 6.97344 6.79986 7.20001L5.74153 8.25834C6.92783 10.3446 8.65524 12.072 10.7415 13.2583L11.7999 12.2C12.0264 11.976 12.3125 11.8216 12.6241 11.7551C12.9358 11.6886 13.2599 11.7129 13.5582 11.825C14.3143 12.1071 15.0998 12.3028 15.8999 12.4083C16.3047 12.4655 16.6744 12.6693 16.9386 12.9813C17.2029 13.2932 17.3433 13.6913 17.3332 14.1Z" stroke="#070707" stroke-width="1.5" stroke-linecap="round" stroke-linejoin="round"/>
</svg>
