<svg width="80" height="80" viewBox="0 0 80 80" fill="none" xmlns="http://www.w3.org/2000/svg">
<g clip-path="url(#clip0)">
<path fill-rule="evenodd" clip-rule="evenodd" d="M67.3493 36.2197C64.9991 42.8995 59.0902 47.7265 51.9257 48.6639L28.5905 51.7168C27.409 51.9953 26.8026 53.3701 27.4792 54.4492C27.8487 55.0379 28.4116 55.3378 29.114 55.3378H63.55C64.7635 55.3378 65.7474 56.3219 65.7474 57.5355C65.7474 58.7494 64.7635 59.7332 63.55 59.7332H29.114C24.5323 59.7332 21.4439 55.0059 23.4125 50.8375C23.6719 50.2893 23.9944 49.7964 24.3725 49.3628L13.0323 21.4457L10.282 19.4545C7.82845 20.7685 4.79408 20.0006 3.24737 17.6963C1.58257 15.2168 2.24767 11.8587 4.72534 10.1954C7.20478 8.53087 10.5623 9.19597 12.2256 11.6733C13.0461 12.896 13.3652 14.4742 12.9865 15.9947L15.681 17.9454L44.5344 22.1557C44.7627 13.8064 51.6043 7.10637 60.0091 7.10637C64.2853 7.10637 68.1578 8.8408 70.9592 11.6446L67.8517 14.7515C63.6228 10.3793 56.4207 10.4968 52.1698 14.748C47.8414 19.0764 47.8414 26.0964 52.1698 30.4257C56.4994 34.7544 63.5191 34.7544 67.8479 30.4257C71.072 27.2024 71.8937 22.4874 70.317 18.5009L73.6172 15.2007C77.7089 22.7215 74.886 32.1525 67.3493 36.2197ZM33.659 25.0026L45.0735 26.6683C45.3869 27.8187 45.8296 28.9163 46.3855 29.9436L46.8837 32.8064L35.8311 32.4991L33.659 25.0026ZM53.275 43.9409L51.849 35.7435C54.7021 37.517 58.1081 38.3437 61.6023 37.9862C59.6707 40.8772 56.7286 43.0173 53.275 43.9409ZM6.73591 14.4847C6.91629 13.5667 8.0999 13.3863 8.58668 14.1116C8.89514 14.5717 8.77205 15.2248 8.30995 15.535C7.58286 16.0226 6.55319 15.4166 6.73591 14.4847ZM35.305 46.4204C34.573 46.5164 33.8345 46.6189 33.0935 46.7218C31.4883 46.9447 29.8717 47.1692 28.2859 47.3322L23.9051 36.5485L32.5147 36.7879L35.305 46.4204ZM39.6986 45.8463L37.1105 36.9154L47.649 37.2083L48.9413 44.6369L39.6986 45.8463ZM31.2345 32.3707L22.1049 32.1169L18.305 22.7615L28.8984 24.3079L31.2345 32.3707Z" fill="url(#paint0_linear)"/>
<path fill-rule="evenodd" clip-rule="evenodd" d="M58.2206 60.8781C61.3003 60.8781 63.7973 63.376 63.7973 66.4547C63.7973 69.5349 61.3003 72.0317 58.2206 72.0317C55.1413 72.0317 52.644 69.5349 52.644 66.4547C52.644 63.376 55.1413 60.8781 58.2206 60.8781ZM59.0564 65.6198C58.3149 64.8781 57.0388 65.4036 57.0388 66.4547C57.0388 67.5061 58.3149 68.0317 59.0564 67.2911C59.5179 66.8296 59.5179 66.0805 59.0564 65.6198ZM32.196 60.8781C35.2753 60.8781 37.7726 63.376 37.7726 66.4547C37.7726 69.5349 35.275 72.0317 32.196 72.0317C29.1164 72.0317 26.619 69.5349 26.619 66.4547C26.619 63.376 29.1164 60.8781 32.196 60.8781ZM33.0315 65.6198C32.29 64.8781 31.0144 65.4036 31.0144 66.4547C31.0144 67.5061 32.2903 68.0317 33.0315 67.2911C33.4927 66.8296 33.4927 66.0805 33.0315 65.6198Z" fill="url(#paint1_linear)"/>
<path d="M79 7L61.125 24.875L57 20.75" stroke="#12BA55" stroke-width="2.5" stroke-linecap="round" stroke-linejoin="round"/>
</g>
<defs>
<linearGradient id="paint0_linear" x1="2" y1="40" x2="75" y2="40" gradientUnits="userSpaceOnUse">
<stop stop-color="#EEEEEE"/>
<stop offset="1" stop-color="#DCDCDC"/>
</linearGradient>
<linearGradient id="paint1_linear" x1="2" y1="40" x2="75" y2="40" gradientUnits="userSpaceOnUse">
<stop stop-color="#EEEEEE"/>
<stop offset="1" stop-color="#DCDCDC"/>
</linearGradient>
<clipPath id="clip0">
<rect width="80" height="80" fill="white"/>
</clipPath>
</defs>
</svg>
