<svg width="24" height="24" viewBox="0 0 24 24" fill="none" xmlns="http://www.w3.org/2000/svg">
<path d="M22.8541 2.91884C22.5805 2.58422 22.1706 2.39999 21.7 2.39999C21.4442 2.39999 21.1731 2.45383 20.8946 2.5603L1.93342 9.79834C0.927171 10.1823 0.791649 10.7586 0.800365 11.0679C0.809081 11.3773 0.977073 11.945 2.00349 12.2716C2.00964 12.2735 2.01579 12.2753 2.02194 12.277L5.95499 13.4026L8.08199 19.4848C8.372 20.314 9.02295 20.8291 9.78106 20.8291C10.2591 20.8291 10.7292 20.6288 11.1407 20.2501L13.5735 18.0102L17.102 20.8513C17.1023 20.8517 17.1028 20.8519 17.1032 20.8522L17.1367 20.8792C17.1398 20.8816 17.143 20.8842 17.1461 20.8865C17.5383 21.1907 17.9664 21.3514 18.3846 21.3516H18.3847C19.2018 21.3516 19.8524 20.7468 20.0419 19.8109L23.1487 4.47042C23.2735 3.85468 23.1689 3.3037 22.8541 2.91884ZM7.27073 13.1888L14.8588 9.31231L10.134 14.3328C10.0565 14.415 10.0017 14.5156 9.97468 14.6252L9.06363 18.3156L7.27073 13.1888ZM10.2515 19.2845C10.2201 19.3134 10.1885 19.3392 10.1569 19.363L11.0021 15.9396L12.5397 17.1777L10.2515 19.2845ZM21.8623 4.2098L18.7556 19.5505C18.7257 19.6973 18.6302 20.0389 18.3846 20.0389C18.2632 20.0389 18.1108 19.9728 17.9548 19.8526L13.9564 16.6332C13.9559 16.6327 13.9552 16.6322 13.9546 16.6319L11.5755 14.7161L18.4082 7.45584C18.6269 7.22342 18.6467 6.86744 18.4552 6.61212C18.2634 6.3568 17.916 6.27647 17.6318 6.42174L6.39386 12.1629L2.40732 11.0223L21.3626 3.78649C21.5228 3.72531 21.6345 3.71249 21.7 3.71249C21.7402 3.71249 21.8116 3.71728 21.8381 3.74992C21.8729 3.79247 21.9174 3.93756 21.8623 4.2098Z" fill="#070707"/>
</svg>
