<svg width="58" height="24" viewBox="0 0 58 24" fill="none" xmlns="http://www.w3.org/2000/svg">
<path d="M21.2667 20.43L24.2128 3.75635H28.8159L25.962 20.43H21.2667Z" fill="white"/>
<path d="M42.6255 3.94125C41.7049 3.57072 40.2319 3.2002 38.3906 3.2002C33.7874 3.2002 30.4731 5.51598 30.4731 8.85072C30.4731 11.3518 32.7747 12.6486 34.616 13.4823C36.4573 14.316 37.0097 14.8718 37.0097 15.6128C37.0097 16.7244 35.5366 17.2802 34.2477 17.2802C32.4065 17.2802 31.3938 17.0023 29.8287 16.3539L29.1842 16.076L28.5398 19.8739C29.6446 20.337 31.67 20.8002 33.7874 20.8002C38.6668 20.8002 41.889 18.4844 41.889 14.9644C41.889 13.0191 40.6922 11.537 37.9303 10.3328C36.2731 9.49914 35.2604 9.03598 35.2604 8.2023C35.2604 7.46125 36.089 6.72019 37.9303 6.72019C39.4954 6.72019 40.6001 6.99809 41.4287 7.36862L41.889 7.55388L42.6255 3.94125Z" fill="white"/>
<path d="M50.5428 3.75635C49.438 3.75635 48.6095 3.84898 48.1491 4.96056L41.2444 20.43H46.2158L47.1364 17.6511H53.0285L53.5809 20.43H57.9999L54.1333 3.75635H50.5428ZM48.4253 14.8721C48.7015 14.0385 50.2666 9.96267 50.2666 9.96267C50.2666 9.96267 50.6348 8.94372 50.911 8.2953L51.1872 9.87003C51.1872 9.87003 52.1079 14.0385 52.292 14.9648H48.4253V14.8721Z" fill="white"/>
<path d="M12.7967 15.4271L12.3364 13.0187C11.5078 10.2397 8.838 7.18288 5.89197 5.70077L10.0348 20.5218H15.0063L22.4634 3.84814H17.492L12.7967 15.4271Z" fill="white"/>
<path d="M0 3.75635L0.828573 3.94161C6.72064 5.33109 10.7714 8.85109 12.3365 13.0195L10.6794 5.14582C10.4032 4.03424 9.57462 3.75635 8.56192 3.75635H0Z" fill="#FFBC00"/>
<path d="M0 3.75635C5.89207 5.14582 10.7714 8.75846 12.3365 12.9269L10.7714 6.35003C10.4953 5.23845 9.57462 4.59003 8.56192 4.59003L0 3.75635Z" fill="#F7981D"/>
<path d="M0 3.75635C5.89207 5.14582 10.7714 8.75846 12.3365 12.9269L11.2318 9.31424C10.9556 8.20266 10.5873 7.09109 9.29843 6.62793L0 3.75635Z" fill="#ED7C00"/>
</svg>
